{
	"asset":{
		"generator":"Khronos glTF Blender I/O v4.2.60",
		"version":"2.0"
	},
	"extensionsUsed":[
		"KHR_texture_transform"
	],
	"extensionsRequired":[
		"KHR_texture_transform"
	],
	"scene":0,
	"scenes":[
		{
			"name":"Scene",
			"nodes":[
				0,
				1,
				2,
				3,
				4
			]
		}
	],
	"nodes":[
		{
			"mesh":0,
			"name":"Temple_Walls_LP",
			"rotation":[
				0.7071031332015991,
				-0.0022929725237190723,
				0.0022929729893803596,
				0.7071030735969543
			],
			"scale":[
				1.5499417781829834,
				1.5499417781829834,
				1.549942135810852
			],
			"translation":[
				-0.1183004379272461,
				-0.038929060101509094,
				0.33150607347488403
			]
		},
		{
			"mesh":1,
			"name":"Temple_PillarsOrnaments_LP",
			"rotation":[
				0.7071031332015991,
				-0.0022929725237190723,
				0.0022929729893803596,
				0.7071030735969543
			],
			"scale":[
				1.5499417781829834,
				1.5499417781829834,
				1.549942135810852
			],
			"translation":[
				-0.1183004379272461,
				-0.038929060101509094,
				0.33150607347488403
			]
		},
		{
			"mesh":2,
			"name":"Temple_Thalamos_LP",
			"rotation":[
				0.7071031332015991,
				-0.0022929725237190723,
				0.0022929729893803596,
				0.7071030735969543
			],
			"scale":[
				1.5499417781829834,
				1.5499417781829834,
				1.549942135810852
			],
			"translation":[
				-0.1183004379272461,
				-0.038929060101509094,
				0.33150607347488403
			]
		},
		{
			"mesh":3,
			"name":"Temple_Thalamos_Floor_LP",
			"rotation":[
				0,
				-0.0032427539117634296,
				0,
				0.9999948143959045
			],
			"scale":[
				0.9657284021377563,
				0.9375496506690979,
				0.9375495314598083
			],
			"translation":[
				-0.02716350555419922,
				1.0718072652816772,
				-1.860640048980713
			]
		},
		{
			"mesh":4,
			"name":"Temple_Floor_LP_001",
			"rotation":[
				0.7071031332015991,
				-0.0022929725237190723,
				0.0022929729893803596,
				0.7071030735969543
			],
			"scale":[
				1.5499417781829834,
				1.5499417781829834,
				1.549942135810852
			],
			"translation":[
				-0.1183004379272461,
				-0.038929060101509094,
				0.33150607347488403
			]
		}
	],
	"materials":[
		{
			"doubleSided":true,
			"name":"temple walls",
			"normalTexture":{
				"extensions":{
					"KHR_texture_transform":{
						"offset":[
							0,
							-1
						]
					}
				},
				"index":0
			},
			"pbrMetallicRoughness":{
				"baseColorTexture":{
					"extensions":{
						"KHR_texture_transform":{
							"offset":[
								0,
								-1
							]
						}
					},
					"index":1
				},
				"metallicFactor":0,
				"roughnessFactor":0.5527864098548889
			}
		},
		{
			"doubleSided":true,
			"name":"draw",
			"normalTexture":{
				"extensions":{
					"KHR_texture_transform":{
						"offset":[
							0,
							-1
						]
					}
				},
				"index":2
			},
			"pbrMetallicRoughness":{
				"baseColorTexture":{
					"extensions":{
						"KHR_texture_transform":{
							"offset":[
								0,
								-1
							]
						}
					},
					"index":3
				},
				"metallicFactor":0,
				"roughnessFactor":0.5527864098548889
			}
		},
		{
			"doubleSided":true,
			"name":"thalamos",
			"normalTexture":{
				"extensions":{
					"KHR_texture_transform":{
						"offset":[
							0,
							-1
						]
					}
				},
				"index":4
			},
			"pbrMetallicRoughness":{
				"baseColorTexture":{
					"extensions":{
						"KHR_texture_transform":{
							"offset":[
								0,
								-1
							]
						}
					},
					"index":5
				},
				"metallicFactor":0,
				"roughnessFactor":0.5527864098548889
			}
		},
		{
			"doubleSided":true,
			"name":"flor",
			"normalTexture":{
				"extensions":{
					"KHR_texture_transform":{
						"offset":[
							0,
							-1
						]
					}
				},
				"index":6
			},
			"pbrMetallicRoughness":{
				"baseColorTexture":{
					"extensions":{
						"KHR_texture_transform":{
							"offset":[
								0,
								-1
							]
						}
					},
					"index":7
				},
				"metallicFactor":0,
				"roughnessFactor":0.5527864098548889
			}
		}
	],
	"meshes":[
		{
			"name":"Mesh",
			"primitives":[
				{
					"attributes":{
						"POSITION":0,
						"NORMAL":1,
						"TEXCOORD_0":2
					},
					"indices":3,
					"material":0
				}
			]
		},
		{
			"name":"Mesh.001",
			"primitives":[
				{
					"attributes":{
						"POSITION":4,
						"NORMAL":5,
						"TEXCOORD_0":6
					},
					"indices":7,
					"material":1
				}
			]
		},
		{
			"name":"Mesh.002",
			"primitives":[
				{
					"attributes":{
						"POSITION":8,
						"NORMAL":9,
						"TEXCOORD_0":10
					},
					"indices":11,
					"material":2
				}
			]
		},
		{
			"name":"Mesh.003",
			"primitives":[
				{
					"attributes":{
						"POSITION":12,
						"NORMAL":13,
						"TEXCOORD_0":14
					},
					"indices":15,
					"material":3
				}
			]
		},
		{
			"name":"Mesh.004",
			"primitives":[
				{
					"attributes":{
						"POSITION":16,
						"NORMAL":17,
						"TEXCOORD_0":18
					},
					"indices":19,
					"material":3
				}
			]
		}
	],
	"textures":[
		{
			"sampler":0,
			"source":0
		},
		{
			"sampler":0,
			"source":1
		},
		{
			"sampler":0,
			"source":2
		},
		{
			"sampler":0,
			"source":3
		},
		{
			"sampler":0,
			"source":4
		},
		{
			"sampler":0,
			"source":5
		},
		{
			"sampler":0,
			"source":6
		},
		{
			"sampler":0,
			"source":7
		}
	],
	"images":[
		{
			"mimeType":"image/jpeg",
			"name":"templeuv4_temple walls_Normal",
			"uri":"templeuv4_temple-walls_Normal.jpg"
		},
		{
			"mimeType":"image/jpeg",
			"name":"templeuv4_temple walls_BaseColor",
			"uri":"templeuv4_temple-walls_BaseColor.jpg"
		},
		{
			"mimeType":"image/jpeg",
			"name":"templeuv4_pillar_Normal",
			"uri":"templeuv4_pillar_Normal.jpg"
		},
		{
			"mimeType":"image/jpeg",
			"name":"templeuv4_pillar_BaseColor",
			"uri":"templeuv4_pillar_BaseColor.jpg"
		},
		{
			"mimeType":"image/jpeg",
			"name":"templeuv4_thalamos_Normal",
			"uri":"templeuv4_thalamos_Normal.jpg"
		},
		{
			"mimeType":"image/jpeg",
			"name":"templeuv4_thalamos_BaseColor",
			"uri":"templeuv4_thalamos_BaseColor.jpg"
		},
		{
			"mimeType":"image/jpeg",
			"name":"templeuv4_flor_Normal",
			"uri":"templeuv4_flor_Normal.jpg"
		},
		{
			"mimeType":"image/jpeg",
			"name":"templeuv4_flor_BaseColor",
			"uri":"templeuv4_flor_BaseColor.jpg"
		}
	],
	"accessors":[
		{
			"bufferView":0,
			"componentType":5126,
			"count":57184,
			"max":[
				3.2430551052093506,
				4.949072360992432,
				-0.48378825187683105
			],
			"min":[
				-3.3185465335845947,
				-5.6853532791137695,
				-7.662808895111084
			],
			"type":"VEC3"
		},
		{
			"bufferView":1,
			"componentType":5126,
			"count":57184,
			"type":"VEC3"
		},
		{
			"bufferView":2,
			"componentType":5126,
			"count":57184,
			"type":"VEC2"
		},
		{
			"bufferView":3,
			"componentType":5123,
			"count":206892,
			"type":"SCALAR"
		},
		{
			"bufferView":4,
			"componentType":5126,
			"count":66029,
			"max":[
				3.484495162963867,
				5.25821590423584,
				-1.1746355295181274
			],
			"min":[
				-3.457932710647583,
				-5.880285739898682,
				-7.156373023986816
			],
			"type":"VEC3"
		},
		{
			"bufferView":5,
			"componentType":5126,
			"count":66029,
			"type":"VEC3"
		},
		{
			"bufferView":6,
			"componentType":5126,
			"count":66029,
			"type":"VEC2"
		},
		{
			"bufferView":7,
			"componentType":5125,
			"count":237384,
			"type":"SCALAR"
		},
		{
			"bufferView":8,
			"componentType":5126,
			"count":54041,
			"max":[
				2.649263858795166,
				0.9693356156349182,
				-0.5916251540184021
			],
			"min":[
				-2.650202512741089,
				-4.876966953277588,
				-4.505772113800049
			],
			"type":"VEC3"
		},
		{
			"bufferView":9,
			"componentType":5126,
			"count":54041,
			"type":"VEC3"
		},
		{
			"bufferView":10,
			"componentType":5126,
			"count":54041,
			"type":"VEC2"
		},
		{
			"bufferView":11,
			"componentType":5123,
			"count":180984,
			"type":"SCALAR"
		},
		{
			"bufferView":12,
			"componentType":5126,
			"count":4,
			"max":[
				4.324086666107178,
				0,
				4.324086666107178
			],
			"min":[
				-4.324086666107178,
				-1.9707488263520645e-07,
				-6.294018745422363
			],
			"type":"VEC3"
		},
		{
			"bufferView":13,
			"componentType":5126,
			"count":4,
			"type":"VEC3"
		},
		{
			"bufferView":14,
			"componentType":5126,
			"count":4,
			"type":"VEC2"
		},
		{
			"bufferView":15,
			"componentType":5123,
			"count":6,
			"type":"SCALAR"
		},
		{
			"bufferView":16,
			"componentType":5126,
			"count":21351,
			"max":[
				3.5247607231140137,
				5.4341864585876465,
				-0.19956766068935394
			],
			"min":[
				-3.5022525787353516,
				-5.879841327667236,
				-1.2720931768417358
			],
			"type":"VEC3"
		},
		{
			"bufferView":17,
			"componentType":5126,
			"count":21351,
			"type":"VEC3"
		},
		{
			"bufferView":18,
			"componentType":5126,
			"count":21351,
			"type":"VEC2"
		},
		{
			"bufferView":19,
			"componentType":5123,
			"count":77640,
			"type":"SCALAR"
		}
	],
	"bufferViews":[
		{
			"buffer":0,
			"byteLength":686208,
			"byteOffset":0,
			"target":34962
		},
		{
			"buffer":0,
			"byteLength":686208,
			"byteOffset":686208,
			"target":34962
		},
		{
			"buffer":0,
			"byteLength":457472,
			"byteOffset":1372416,
			"target":34962
		},
		{
			"buffer":0,
			"byteLength":413784,
			"byteOffset":1829888,
			"target":34963
		},
		{
			"buffer":0,
			"byteLength":792348,
			"byteOffset":2243672,
			"target":34962
		},
		{
			"buffer":0,
			"byteLength":792348,
			"byteOffset":3036020,
			"target":34962
		},
		{
			"buffer":0,
			"byteLength":528232,
			"byteOffset":3828368,
			"target":34962
		},
		{
			"buffer":0,
			"byteLength":949536,
			"byteOffset":4356600,
			"target":34963
		},
		{
			"buffer":0,
			"byteLength":648492,
			"byteOffset":5306136,
			"target":34962
		},
		{
			"buffer":0,
			"byteLength":648492,
			"byteOffset":5954628,
			"target":34962
		},
		{
			"buffer":0,
			"byteLength":432328,
			"byteOffset":6603120,
			"target":34962
		},
		{
			"buffer":0,
			"byteLength":361968,
			"byteOffset":7035448,
			"target":34963
		},
		{
			"buffer":0,
			"byteLength":48,
			"byteOffset":7397416,
			"target":34962
		},
		{
			"buffer":0,
			"byteLength":48,
			"byteOffset":7397464,
			"target":34962
		},
		{
			"buffer":0,
			"byteLength":32,
			"byteOffset":7397512,
			"target":34962
		},
		{
			"buffer":0,
			"byteLength":12,
			"byteOffset":7397544,
			"target":34963
		},
		{
			"buffer":0,
			"byteLength":256212,
			"byteOffset":7397556,
			"target":34962
		},
		{
			"buffer":0,
			"byteLength":256212,
			"byteOffset":7653768,
			"target":34962
		},
		{
			"buffer":0,
			"byteLength":170808,
			"byteOffset":7909980,
			"target":34962
		},
		{
			"buffer":0,
			"byteLength":155280,
			"byteOffset":8080788,
			"target":34963
		}
	],
	"samplers":[
		{
			"magFilter":9729,
			"minFilter":9987
		}
	],
	"buffers":[
		{
			"byteLength":8236068,
			"uri":"Temple.bin"
		}
	]
}
